<svg width="24" height="36" viewBox="0 0 24 36" fill="none" xmlns="http://www.w3.org/2000/svg">
<g clip-path="url(#clip0_79_143)">
<path d="M11.933 9.09106C8.57429 9.09106 5.85516 13.0438 5.85516 17.9166C5.85516 22.7938 8.57725 26.7422 11.933 26.7422C15.2917 26.7422 18.0108 22.7895 18.0108 17.9166C18.0108 13.0395 15.2887 9.09106 11.933 9.09106V9.09106ZM11.933 23.6451C9.75274 23.6451 7.98802 21.0811 7.98802 17.9166C7.98802 14.7522 9.75373 12.1882 11.933 12.1882C14.1122 12.1882 15.8779 14.7522 15.8779 17.9166C15.8789 21.0811 14.1132 23.6451 11.933 23.6451V23.6451Z" fill="#2F3035"/>
<path d="M16.8126 0.83366C14.6333 0.686041 9.23554 0.693207 7.05432 0.83366C5.1376 0.96408 3.44691 1.63625 2.08389 3.61548C-0.194057 6.92328 0.0971015 11.3805 0.0971015 17.9173C0.0971015 24.6074 -0.159513 28.9614 2.08389 32.2191C4.37072 35.5383 7.48464 35.1041 11.933 35.1041C16.4967 35.1041 18.072 35.1084 19.6857 34.2012C21.8797 32.9643 23.5359 30.1166 23.6977 25.0015C23.8004 21.8356 23.7945 13.9989 23.6977 10.8316C23.5023 4.79356 21.2708 1.13176 16.8126 0.83366V0.83366ZM20.2621 30.0306C18.7688 32.199 16.6971 32.0055 11.9043 32.0055C6.96944 32.0055 4.99054 32.1116 3.54659 30.0091C1.88353 27.6056 2.18456 23.7461 2.18456 17.8943C2.18456 9.97598 1.62495 4.27331 7.09774 3.86629C8.35516 3.8018 8.72527 3.7803 11.8905 3.7803L11.9349 3.82329C17.1945 3.82329 21.3211 3.02357 21.5688 10.9692C21.6251 12.7822 21.6379 13.3268 21.6379 17.9158C21.6369 24.9987 21.7297 27.8894 20.2621 30.0306V30.0306Z" fill="#2F3035"/>
<path d="M18.2518 10.8051C19.0362 10.8051 19.672 9.88179 19.672 8.74278C19.672 7.60377 19.0362 6.68042 18.2518 6.68042C17.4674 6.68042 16.8315 7.60377 16.8315 8.74278C16.8315 9.88179 17.4674 10.8051 18.2518 10.8051Z" fill="#2F3035"/>
</g>
<defs>
<clipPath id="clip0_79_143">
<rect width="23.6875" height="34.3965" fill="white" transform="translate(0.0854492 0.724091)"/>
</clipPath>
</defs>
</svg>
