<svg width="25" height="36" viewBox="0 0 25 36" fill="none" xmlns="http://www.w3.org/2000/svg">
<g clip-path="url(#clip0_79_147)">
<path d="M20.116 19.3957C19.7331 18.6934 19.8426 18.381 20.116 17.7533C20.121 17.7461 23.2822 11.4028 23.6079 9.25157L23.6099 9.25014C23.7718 8.46619 23.6099 7.89005 22.8273 7.89005H20.2374C19.5781 7.89005 19.2741 8.3845 19.1113 8.93771C19.1113 8.93771 17.7927 13.521 15.9273 16.492C15.3252 17.3505 15.0469 17.6257 14.7182 17.6257C14.5564 17.6257 14.3047 17.3505 14.3047 16.5666V9.25014C14.3047 8.30997 14.1201 7.89005 13.5743 7.89005H9.50204C9.0885 7.89005 8.84274 8.3286 8.84274 8.73706C8.84274 9.6285 9.77544 9.83345 9.87216 12.3415V17.7834C9.87216 18.9758 9.72313 19.195 9.39249 19.195C8.5121 19.195 6.37529 14.5931 5.109 9.3261C4.85337 8.30424 4.60367 7.89148 3.93943 7.89148H1.34861C0.609361 7.89148 0.460327 8.38593 0.460327 8.93914C0.460327 9.91657 1.34071 14.7765 4.55432 21.1972C6.69606 25.5799 9.71227 27.9547 12.4561 27.9547C14.1053 27.9547 14.3067 27.4273 14.3067 26.5201C14.3067 22.3323 14.1576 21.9367 14.9837 21.9367C15.3667 21.9367 16.026 22.2119 17.5657 24.3259C19.3254 26.8325 19.6146 27.9547 20.5996 27.9547H23.1895C23.9277 27.9547 24.3018 27.4273 24.0866 26.3868C23.5941 24.1983 20.266 19.6967 20.116 19.3957V19.3957Z" fill="#2F3035"/>
</g>
<defs>
<clipPath id="clip0_79_147">
<rect width="23.6875" height="34.3965" fill="white" transform="translate(0.460327 0.724091)"/>
</clipPath>
</defs>
</svg>
